<svg xmlns="http://www.w3.org/2000/svg" width="400" height="400" viewBox="0 0 400 400">
  <g id="Group_2" data-name="Group 2" transform="translate(1918 -1163)">
    <g id="Group_1" data-name="Group 1">
      <g id="Rectangle_1" data-name="Rectangle 1" transform="translate(-1918 1163)" fill="#1a7cde" stroke="#1a7cde" stroke-width="1">
        <rect width="400" height="400" rx="38" stroke="none"/>
        <rect x="0.5" y="0.5" width="399" height="399" rx="37.5" fill="none"/>
      </g>
    </g>
    <g id="Rectangle_2" data-name="Rectangle 2" transform="translate(-1853 1228)" fill="#fff" stroke="#1a7cde" stroke-width="1">
      <path d="M178,0h20a72,72,0,0,1,72,72V198a72,72,0,0,1-72,72H72A72,72,0,0,1,0,198V178A178,178,0,0,1,178,0Z" stroke="none"/>
      <path d="M178,.5h20A71.5,71.5,0,0,1,269.5,72V198A71.5,71.5,0,0,1,198,269.5H72A71.5,71.5,0,0,1,.5,198V178A177.5,177.5,0,0,1,178,.5Z" fill="none"/>
    </g>
    <g id="Ellipse_1" data-name="Ellipse 1" transform="translate(-1775 1295)" fill="#1a7cde" stroke="#1a7cde" stroke-width="1">
      <circle cx="75" cy="75" r="75" stroke="none"/>
      <circle cx="75" cy="75" r="74.5" fill="none"/>
    </g>
    <g id="Polygon_1" data-name="Polygon 1" transform="translate(-1782.534 1413.678) rotate(-31)" fill="#1a7cde">
      <path d="M 40.34860610961914 13.5 L 1.651394963264465 13.5 L 21 0.6009299755096436 L 40.34860610961914 13.5 Z" stroke="none"/>
      <path d="M 21 1.201849937438965 L 3.302776336669922 13 L 38.69722366333008 13 L 21 1.201849937438965 M 21 0 L 42 14 L 0 14 L 21 0 Z" stroke="none" fill="#1a7cde"/>
    </g>
    <g id="Ellipse_2" data-name="Ellipse 2" transform="translate(-1749 1358)" fill="#fff" stroke="#fff" stroke-width="1">
      <circle cx="12.5" cy="12.5" r="12.5" stroke="none"/>
      <circle cx="12.5" cy="12.5" r="12" fill="none"/>
    </g>
    <g id="Ellipse_3" data-name="Ellipse 3" transform="translate(-1712 1358)" fill="#fff" stroke="#fff" stroke-width="1">
      <circle cx="12.5" cy="12.5" r="12.5" stroke="none"/>
      <circle cx="12.5" cy="12.5" r="12" fill="none"/>
    </g>
    <g id="Ellipse_4" data-name="Ellipse 4" transform="translate(-1675 1358)" fill="#fff" stroke="#fff" stroke-width="1">
      <circle cx="12.5" cy="12.5" r="12.5" stroke="none"/>
      <circle cx="12.5" cy="12.5" r="12" fill="none"/>
    </g>
  </g>
</svg>
