<svg xmlns="http://www.w3.org/2000/svg" width="400" height="400" viewBox="0 0 400 400"><defs><style>.a{fill:#005eb1;}.b{fill:#fff;}.c{fill:#f2f2f2;}</style></defs><g transform="translate(-3048.844 3082)"><rect class="a" width="400" height="400" rx="43" transform="translate(3048.844 -3082)"/><path class="b" d="M205,0h0a81,81,0,0,1,81,81V270a26,26,0,0,1-26,26H86A86,86,0,0,1,0,210v-5A205,205,0,0,1,205,0Z" transform="translate(3105.844 -3030)"/><rect class="c" width="38" height="236" rx="19" transform="translate(3353.844 -2977)"/><circle class="a" cx="70.5" cy="70.5" r="70.5" transform="translate(3178.844 -2928)"/><circle class="b" cx="49.5" cy="49.5" r="49.5" transform="translate(3199.844 -2907)"/></g></svg>