<svg xmlns="http://www.w3.org/2000/svg" width="600" height="600" viewBox="0 0 600 600">
  <g id="Group_2" data-name="Group 2" transform="translate(-919 -192)">
    <g id="Group_1" data-name="Group 1" transform="translate(416 472)">
      <path id="Subtraction_1" data-name="Subtraction 1" d="M300,600a302.218,302.218,0,0,1-60.46-6.095,298.355,298.355,0,0,1-107.272-45.141A300.875,300.875,0,0,1,23.575,416.773,298.493,298.493,0,0,1,6.095,360.46a302.926,302.926,0,0,1,0-120.921,298.357,298.357,0,0,1,45.14-107.272A300.874,300.874,0,0,1,183.226,23.575,298.491,298.491,0,0,1,239.539,6.095a302.926,302.926,0,0,1,120.921,0,298.359,298.359,0,0,1,107.273,45.14A300.876,300.876,0,0,1,576.425,183.226a298.488,298.488,0,0,1,17.481,56.313,302.926,302.926,0,0,1,0,120.921,298.358,298.358,0,0,1-45.141,107.272A300.878,300.878,0,0,1,416.773,576.424a298.494,298.494,0,0,1-56.313,17.481A302.219,302.219,0,0,1,300,600Zm.5-565C154.1,35,35,154.1,35,300.5S154.1,566,300.5,566,566,446.9,566,300.5,446.9,35,300.5,35Z" transform="translate(503 -280)"/>
      <circle id="Ellipse_3" data-name="Ellipse 3" cx="247.5" cy="247.5" r="247.5" transform="translate(556 -227)"/>
      <text id="_" data-name="!" transform="translate(724 197)" fill="#fff" font-size="534" font-family="BookmanOldStyle, Bookman Old Style"><tspan x="0" y="0">!</tspan></text>
    </g>
  </g>
</svg>
